<svg width="48" height="48" viewBox="0 0 48 48" fill="none" xmlns="http://www.w3.org/2000/svg">
<rect width="48" height="48" rx="24" fill="#F7EEE9"/>
<path d="M24 24C23.45 24 22.9792 23.8042 22.5875 23.4125C22.1958 23.0208 22 22.55 22 22C22 21.45 22.1958 20.9792 22.5875 20.5875C22.9792 20.1958 23.45 20 24 20C24.55 20 25.0208 20.1958 25.4125 20.5875C25.8042 20.9792 26 21.45 26 22C26 22.55 25.8042 23.0208 25.4125 23.4125C25.0208 23.8042 24.55 24 24 24ZM18.5 21C18.7833 21 19.0208 20.9042 19.2125 20.7125C19.4042 20.5208 19.5 20.2833 19.5 20C19.5 19.7167 19.4042 19.4792 19.2125 19.2875C19.0208 19.0958 18.7833 19 18.5 19C18.2167 19 17.9792 19.0958 17.7875 19.2875C17.5958 19.4792 17.5 19.7167 17.5 20C17.5 20.2833 17.5958 20.5208 17.7875 20.7125C17.9792 20.9042 18.2167 21 18.5 21ZM17 33C16.7167 33 16.4792 32.9042 16.2875 32.7125C16.0958 32.5208 16 32.2833 16 32C16 31.7167 16.0958 31.4792 16.2875 31.2875C16.4792 31.0958 16.7167 31 17 31H19.225L19.75 28.9C18.1 28.6167 16.7292 27.8292 15.6375 26.5375C14.5458 25.2458 14 23.7333 14 22C14 20.05 14.6792 18.3958 16.0375 17.0375C17.3958 15.6792 19.05 15 21 15H27C28.95 15 30.6042 15.6792 31.9625 17.0375C33.3208 18.3958 34 20.05 34 22C34 23.7333 33.4542 25.2458 32.3625 26.5375C31.2708 27.8292 29.9 28.6167 28.25 28.9L28.775 31H31C31.2833 31 31.5208 31.0958 31.7125 31.2875C31.9042 31.4792 32 31.7167 32 32C32 32.2833 31.9042 32.5208 31.7125 32.7125C31.5208 32.9042 31.2833 33 31 33H17ZM24 26C25.1 26 26.0417 25.6083 26.825 24.825C27.6083 24.0417 28 23.1 28 22C28 20.9 27.6083 19.9583 26.825 19.175C26.0417 18.3917 25.1 18 24 18C22.9 18 21.9583 18.3917 21.175 19.175C20.3917 19.9583 20 20.9 20 22C20 23.1 20.3917 24.0417 21.175 24.825C21.9583 25.6083 22.9 26 24 26Z" fill="#A44119"/>
</svg>
