<svg width="168" height="40" viewBox="0 0 168 40" fill="none" xmlns="http://www.w3.org/2000/svg">
<path d="M146.378 8.46445V6.62435H152.126C152.18 6.69984 152.234 6.82251 152.289 6.99237C152.343 7.14335 152.37 7.32264 152.37 7.53024C152.37 7.83221 152.298 8.06812 152.153 8.23797C152.008 8.38895 151.8 8.46445 151.529 8.46445H146.378ZM146.757 4.84087V8.15304H144.615V4.72763C144.615 3.61414 144.805 2.71768 145.185 2.03826C145.582 1.33997 146.143 0.830403 146.866 0.509566C147.607 0.169856 148.484 0 149.496 0C150.526 0 151.331 0.141546 151.909 0.424638C152.505 0.70773 152.804 1.05688 152.804 1.47208C152.804 1.67968 152.759 1.86841 152.668 2.03826C152.596 2.20812 152.487 2.36853 152.343 2.51952C152.017 2.33079 151.611 2.17981 151.123 2.06657C150.635 1.93446 150.165 1.86841 149.713 1.86841C148.61 1.86841 147.842 2.10432 147.408 2.57613C146.974 3.04796 146.757 3.80287 146.757 4.84087ZM144.615 6.90744H146.784V18.9105C146.694 18.9483 146.558 18.986 146.378 19.0238C146.197 19.0804 145.998 19.1087 145.781 19.1087C145.402 19.1087 145.112 19.0332 144.913 18.8822C144.715 18.7124 144.615 18.4481 144.615 18.0896V6.90744Z" fill="#E69270"/>
<path d="M137.831 1.75506C137.831 1.35873 137.967 1.02846 138.238 0.764238C138.509 0.481145 138.843 0.3396 139.241 0.3396C139.657 0.3396 139.991 0.481145 140.244 0.764238C140.497 1.02846 140.624 1.35873 140.624 1.75506C140.624 2.15139 140.497 2.4911 140.244 2.77419C139.991 3.03841 139.657 3.17052 139.241 3.17052C138.843 3.17052 138.509 3.03841 138.238 2.77419C137.967 2.4911 137.831 2.15139 137.831 1.75506ZM138.156 11.4934H140.325V18.9104C140.235 18.9482 140.099 18.9859 139.919 19.0237C139.738 19.0803 139.539 19.1086 139.322 19.1086C138.943 19.1086 138.653 19.0331 138.455 18.8821C138.256 18.7123 138.156 18.448 138.156 18.0895V11.4934ZM140.325 12.5975H138.156V5.94482C138.247 5.90707 138.382 5.86933 138.563 5.83158C138.762 5.77496 138.97 5.74665 139.187 5.74665C139.566 5.74665 139.846 5.83158 140.027 6.00144C140.226 6.15242 140.325 6.41664 140.325 6.79409V12.5975Z" fill="#E69270"/>
<path d="M124.817 8.91729H127.04V18.7406L126.01 18.9671C125.666 18.9671 125.377 18.8538 125.142 18.6273C124.925 18.382 124.817 18.08 124.817 17.7214V8.91729ZM126.01 18.9671V16.9854H134.822C134.912 17.0609 134.985 17.1836 135.039 17.3534C135.093 17.5233 135.12 17.712 135.12 17.9196C135.12 18.2404 135.039 18.4952 134.876 18.684C134.713 18.8727 134.496 18.9671 134.225 18.9671H126.01ZM127.04 10.6158H124.817V1.81169C124.907 1.77394 125.043 1.7362 125.223 1.69845C125.422 1.64183 125.63 1.61353 125.847 1.61353C126.245 1.61353 126.543 1.69845 126.742 1.86831C126.941 2.01929 127.04 2.28351 127.04 2.66096V10.6158Z" fill="#E69270"/>
<path d="M107.146 9.22881C106.821 10.4178 106.468 11.6068 106.089 12.7958C105.727 13.9848 105.375 15.0982 105.031 16.1363C104.688 17.1743 104.371 18.0707 104.082 18.8256C103.938 18.92 103.775 18.9955 103.594 19.0521C103.413 19.1087 103.169 19.137 102.862 19.137C102.573 19.137 102.302 19.0804 102.049 18.9672C101.814 18.8728 101.651 18.7124 101.561 18.4859C101.38 18.1085 101.172 17.5611 100.937 16.844C100.72 16.1268 100.485 15.3058 100.232 14.3811C99.9969 13.4563 99.7529 12.5032 99.4998 11.5219C99.2468 10.5216 99.0118 9.55908 98.7949 8.63432C98.596 7.70955 98.4243 6.88858 98.2797 6.17142C98.4062 6.03931 98.5599 5.91664 98.7406 5.8034C98.9395 5.69016 99.1745 5.63354 99.4456 5.63354C99.7891 5.63354 100.042 5.73735 100.205 5.94495C100.386 6.13367 100.512 6.44507 100.584 6.87915C100.747 7.67181 100.928 8.56826 101.127 9.56852C101.344 10.5688 101.561 11.5596 101.777 12.541C102.012 13.5224 102.22 14.4094 102.401 15.202C102.6 15.9758 102.745 16.5515 102.835 16.9289H102.943C103.088 16.476 103.314 15.7399 103.621 14.7208C103.929 13.6828 104.29 12.5032 104.706 11.1821C105.14 9.86105 105.573 8.52108 106.007 7.16224C106.152 7.06788 106.324 7.00182 106.522 6.96408C106.721 6.90746 106.938 6.87915 107.173 6.87915C107.499 6.87915 107.77 6.9452 107.987 7.07731C108.204 7.19055 108.348 7.36984 108.42 7.61519C108.854 8.91741 109.261 10.2008 109.641 11.4652C110.02 12.7108 110.355 13.8243 110.644 14.8057C110.933 15.7682 111.141 16.4854 111.267 16.9572H111.403C111.819 15.2775 112.271 13.4752 112.759 11.5502C113.247 9.62514 113.644 7.73786 113.952 5.88833C114.205 5.71847 114.512 5.63354 114.874 5.63354C115.181 5.63354 115.425 5.70904 115.606 5.86002C115.786 6.011 115.877 6.24691 115.877 6.56775C115.877 6.77535 115.814 7.17168 115.687 7.75673C115.579 8.34179 115.425 9.03065 115.226 9.8233C115.027 10.616 114.801 11.4652 114.548 12.3711C114.313 13.2582 114.069 14.1263 113.816 14.9756C113.563 15.806 113.319 16.5609 113.084 17.2403C112.867 17.9197 112.677 18.4482 112.515 18.8256C112.424 18.9011 112.271 18.9672 112.054 19.0238C111.855 19.0993 111.62 19.137 111.349 19.137C110.608 19.137 110.174 18.9577 110.047 18.5991C109.794 17.9197 109.505 17.0799 109.18 16.0796C108.854 15.0605 108.52 13.9659 108.176 12.7958C107.833 11.6068 107.49 10.4178 107.146 9.22881Z" fill="#E69270"/>
<path d="M90.3844 17.4948C91.1436 17.4948 91.7672 17.4193 92.2552 17.2683C92.7614 17.0985 93.1229 16.9381 93.3398 16.7871V12.6822L89.9776 13.0503C89.0377 13.1258 88.3417 13.3428 87.8898 13.7014C87.4379 14.06 87.212 14.579 87.212 15.2584C87.212 15.9567 87.4741 16.504 87.9983 16.9003C88.5406 17.2966 89.3359 17.4948 90.3844 17.4948ZM90.3572 5.52002C91.9299 5.52002 93.1771 5.88804 94.099 6.62408C95.0209 7.36012 95.4818 8.52079 95.4818 10.1061V16.8154C95.4818 17.2306 95.4005 17.5514 95.2378 17.7779C95.0932 17.9855 94.8672 18.1837 94.5599 18.3724C94.1261 18.6177 93.5477 18.8442 92.8246 19.0518C92.1016 19.2594 91.2882 19.3632 90.3844 19.3632C88.6852 19.3632 87.3656 19.0141 86.4257 18.3158C85.5038 17.6175 85.0428 16.6078 85.0428 15.2867C85.0428 14.06 85.4315 13.1258 86.2088 12.4841C87.0041 11.8235 88.0977 11.4272 89.4896 11.2951L93.3398 10.8988V10.1061C93.3398 9.16247 93.0687 8.47361 92.5264 8.03954C91.9841 7.60546 91.252 7.38842 90.3301 7.38842C89.589 7.38842 88.875 7.50166 88.1881 7.72813C87.5193 7.95461 86.9228 8.20939 86.3986 8.49248C86.254 8.36037 86.1184 8.20939 85.9918 8.03954C85.8834 7.85081 85.8292 7.66208 85.8292 7.47335C85.8292 6.98266 86.0913 6.6052 86.6155 6.34099C87.1035 6.07677 87.6639 5.8786 88.2966 5.74649C88.9473 5.59551 89.6342 5.52002 90.3572 5.52002Z" fill="#E69270"/>
<path d="M73.3669 10.8991H75.997C77.4431 10.8991 78.5638 10.5877 79.3592 9.96491C80.1545 9.32323 80.5522 8.36072 80.5522 7.07737C80.5522 5.79402 80.1636 4.85982 79.3863 4.27476C78.6271 3.67084 77.5335 3.36887 76.1055 3.36887C75.6174 3.36887 75.1294 3.39718 74.6413 3.4538C74.1713 3.49154 73.7465 3.54816 73.3669 3.62365V10.8991ZM76.1326 12.8241H71.1707V3.00085C71.1707 2.69889 71.243 2.47241 71.3876 2.32143C71.5503 2.15158 71.7762 2.01947 72.0655 1.9251C72.5897 1.75525 73.2223 1.63258 73.9635 1.55708C74.7227 1.48159 75.4547 1.44385 76.1597 1.44385C78.4554 1.44385 80.1274 1.95341 81.1759 2.97254C82.2423 3.9728 82.7756 5.33164 82.7756 7.04906C82.7756 8.21918 82.5316 9.23831 82.0435 10.1065C81.5735 10.9746 80.8505 11.6446 79.8744 12.1164C78.8983 12.5882 77.651 12.8241 76.1326 12.8241ZM71.1707 11.7201H73.3941V18.9106C73.2856 18.9484 73.141 18.9861 72.9602 19.0238C72.7795 19.0805 72.5806 19.1088 72.3637 19.1088C71.966 19.1088 71.6678 19.0238 71.4689 18.854C71.2701 18.6841 71.1707 18.4199 71.1707 18.0613V11.7201Z" fill="#E69270"/>
<path d="M60.7298 11.4935H62.899V15.4002C62.899 16.1551 63.1068 16.693 63.5226 17.0138C63.9384 17.3158 64.5077 17.4668 65.2308 17.4668C65.5381 17.4668 65.8815 17.4102 66.2611 17.2969C66.6407 17.1837 66.9571 17.0516 67.2101 16.9006C67.3186 17.0138 67.418 17.1554 67.5084 17.3252C67.5988 17.4951 67.644 17.6933 67.644 17.9197C67.644 18.3349 67.409 18.6746 66.939 18.9389C66.469 19.2031 65.8183 19.3352 64.9868 19.3352C63.7214 19.3352 62.6911 19.0427 61.8957 18.4576C61.1185 17.8725 60.7298 16.9006 60.7298 15.5418V11.4935ZM61.8415 8.03982V6.17142H67.3457C67.3999 6.24691 67.4542 6.36958 67.5084 6.53943C67.5626 6.70929 67.5897 6.88858 67.5897 7.07731C67.5897 7.37927 67.5174 7.61518 67.3728 7.78504C67.2282 7.95489 67.0294 8.03982 66.7763 8.03982H61.8415ZM62.899 12.3428H60.7298V2.09489C60.8202 2.05715 60.9558 2.0194 61.1365 1.98166C61.3354 1.92504 61.5433 1.89673 61.7602 1.89673C62.1398 1.89673 62.42 1.98166 62.6007 2.15151C62.7996 2.30249 62.899 2.55728 62.899 2.91586V12.3428Z" fill="#E69270"/>
<path d="M52.5187 8.32263V12.7955H50.3495V8.49248C50.3495 8.05841 50.4219 7.7187 50.5665 7.47335C50.7291 7.20913 50.9913 6.95435 51.3528 6.709C51.8228 6.38817 52.4645 6.11451 53.2779 5.88804C54.0913 5.64269 54.9951 5.52002 55.9893 5.52002C57.4354 5.52002 58.1585 5.89747 58.1585 6.65239C58.1585 6.84111 58.1313 7.02041 58.0771 7.19026C58.0229 7.34124 57.9506 7.47335 57.8602 7.58659C57.6794 7.54884 57.4444 7.5111 57.1552 7.47335C56.866 7.43561 56.5768 7.41673 56.2876 7.41673C55.4561 7.41673 54.724 7.5111 54.0913 7.69983C53.4587 7.86968 52.9344 8.07728 52.5187 8.32263ZM50.3495 11.4933L52.5187 11.833V18.9103C52.4283 18.948 52.2927 18.9858 52.112 19.0235C51.9312 19.0801 51.7324 19.1084 51.5155 19.1084C51.1359 19.1084 50.8466 19.0329 50.6478 18.882C50.449 18.7121 50.3495 18.4479 50.3495 18.0893V11.4933Z" fill="#E69270"/>
<path d="M41.2927 17.4948C42.0519 17.4948 42.6755 17.4193 43.1636 17.2683C43.6697 17.0985 44.0313 16.9381 44.2482 16.7871V12.6822L40.886 13.0503C39.946 13.1258 39.2501 13.3428 38.7982 13.7014C38.3463 14.06 38.1203 14.579 38.1203 15.2584C38.1203 15.9567 38.3824 16.504 38.9067 16.9003C39.4489 17.2966 40.2443 17.4948 41.2927 17.4948ZM41.2656 5.52002C42.8382 5.52002 44.0855 5.88804 45.0074 6.62408C45.9293 7.36012 46.3902 8.52079 46.3902 10.1061V16.8154C46.3902 17.2306 46.3089 17.5514 46.1462 17.7779C46.0016 17.9855 45.7756 18.1837 45.4683 18.3724C45.0345 18.6177 44.456 18.8442 43.733 19.0518C43.0099 19.2594 42.1965 19.3632 41.2927 19.3632C39.5936 19.3632 38.274 19.0141 37.334 18.3158C36.4121 17.6175 35.9512 16.6078 35.9512 15.2867C35.9512 14.06 36.3398 13.1258 37.1171 12.4841C37.9125 11.8235 39.0061 11.4272 40.3979 11.2951L44.2482 10.8988V10.1061C44.2482 9.16247 43.977 8.47361 43.4347 8.03954C42.8925 7.60546 42.1604 7.38842 41.2385 7.38842C40.4974 7.38842 39.7834 7.50166 39.0965 7.72813C38.4276 7.95461 37.8311 8.20939 37.3069 8.49248C37.1623 8.36037 37.0267 8.20939 36.9002 8.03954C36.7917 7.85081 36.7375 7.66208 36.7375 7.47335C36.7375 6.98266 36.9996 6.6052 37.5238 6.34099C38.0119 6.07677 38.5722 5.8786 39.2049 5.74649C39.8557 5.59551 40.5426 5.52002 41.2656 5.52002Z" fill="#E69270"/>
<path d="M24.7962 9.90794V13.1635H22.6271V10.0778C22.6271 9.15303 22.365 8.47361 21.8408 8.03954C21.3347 7.60546 20.6568 7.38842 19.8072 7.38842C19.2469 7.38842 18.7046 7.48279 18.1804 7.67152C17.6561 7.86024 17.2133 8.07728 16.8518 8.32263V13.1635H14.6826V8.43586C14.6826 8.05841 14.7549 7.73757 14.8995 7.47335C15.0622 7.20913 15.3334 6.95435 15.713 6.709C16.201 6.38817 16.8156 6.11451 17.5567 5.88804C18.3159 5.64269 19.0751 5.52002 19.8343 5.52002C20.7562 5.52002 21.5696 5.671 22.2746 5.97297C22.9796 6.25606 23.5038 6.65239 23.8472 7.16195C23.9557 7.27519 24.0461 7.37899 24.1184 7.47335C24.1907 7.56772 24.263 7.69039 24.3353 7.84137C24.4618 8.06784 24.5703 8.36037 24.6607 8.71896C24.751 9.07754 24.7962 9.47387 24.7962 9.90794ZM32.7407 9.96456V13.1635H30.5716V10.0778C30.5716 9.15303 30.3185 8.47361 29.8124 8.03954C29.3062 7.60546 28.6284 7.38842 27.7788 7.38842C27.1461 7.38842 26.5316 7.52997 25.935 7.81306C25.3566 8.07728 24.8324 8.46417 24.3624 8.97374L23.4948 7.33181C23.9647 6.84111 24.5793 6.41648 25.3385 6.05789C26.0977 5.69931 26.9654 5.52002 27.9415 5.52002C28.9176 5.52002 29.7581 5.68044 30.4631 6.00127C31.1862 6.32211 31.7465 6.8128 32.1442 7.47335C32.5419 8.1339 32.7407 8.9643 32.7407 9.96456ZM14.6826 11.6631H16.8518V18.9103C16.7614 18.948 16.6258 18.9858 16.445 19.0235C16.2643 19.0801 16.0654 19.1084 15.8485 19.1084C15.4689 19.1084 15.1797 19.0329 14.9809 18.882C14.782 18.7121 14.6826 18.4479 14.6826 18.0893V11.6631ZM22.6271 11.6631H24.7962V18.9103C24.7059 18.948 24.5612 18.9858 24.3624 19.0235C24.1816 19.0801 23.9919 19.1084 23.793 19.1084C23.3953 19.1084 23.0971 19.0329 22.8982 18.882C22.7175 18.7121 22.6271 18.4479 22.6271 18.0893V11.6631ZM30.5716 11.6631H32.7407V18.9103C32.6503 18.948 32.5057 18.9858 32.3069 19.0235C32.1261 19.0801 31.9363 19.1084 31.7375 19.1084C31.3398 19.1084 31.0416 19.0329 30.8427 18.882C30.662 18.7121 30.5716 18.4479 30.5716 18.0893V11.6631Z" fill="#E69270"/>
<path d="M5.5042 17.4102C6.7153 17.4102 7.62815 17.1271 8.24274 16.5609C8.8754 15.9759 9.19174 15.2304 9.19174 14.3245C9.19174 13.5507 8.94771 12.909 8.45965 12.3995C7.98967 11.8899 7.23951 11.4841 6.20917 11.1822L3.85023 10.4461C3.09103 10.2008 2.43125 9.8894 1.87088 9.51194C1.31052 9.11561 0.876695 8.63436 0.5694 8.06817C0.280181 7.48312 0.135571 6.8037 0.135571 6.02991C0.135571 4.57671 0.641704 3.44434 1.65397 2.63281C2.66624 1.80241 4.01291 1.38721 5.694 1.38721C6.67011 1.38721 7.53777 1.50044 8.29697 1.72692C9.07424 1.93452 9.67979 2.20817 10.1136 2.54788C10.5655 2.88759 10.7915 3.24618 10.7915 3.62363C10.7915 3.86898 10.7282 4.09545 10.6017 4.30305C10.4751 4.49178 10.3125 4.64276 10.1136 4.756C9.66172 4.37854 9.04713 4.04827 8.26985 3.76518C7.51065 3.48209 6.67915 3.34054 5.77534 3.34054C4.72692 3.34054 3.89542 3.58589 3.28083 4.07658C2.66624 4.5484 2.35894 5.19951 2.35894 6.02991C2.35894 6.69046 2.57586 7.22834 3.00968 7.64354C3.46159 8.05874 4.18464 8.41732 5.17883 8.71928L6.8328 9.22885C8.26081 9.64405 9.38154 10.248 10.195 11.0406C11.0265 11.8333 11.4422 12.9279 11.4422 14.3245C11.4422 15.8155 10.918 17.0233 9.86959 17.9481C8.83925 18.8728 7.38412 19.3352 5.5042 19.3352C4.40155 19.3352 3.43447 19.2126 2.60297 18.9672C1.78954 18.703 1.14784 18.3822 0.677857 18.0047C0.225952 17.6084 0 17.2215 0 16.844C0 16.5232 0.0903809 16.259 0.271143 16.0514C0.469981 15.8249 0.695933 15.6645 0.948999 15.5701C1.36475 15.9853 1.95223 16.4005 2.71143 16.8157C3.47063 17.212 4.40155 17.4102 5.5042 17.4102Z" fill="#E69270"/>
<path d="M158.856 28.5916C159.116 28.7595 159.147 28.9881 158.95 29.2774C158.763 29.5573 158.562 29.6227 158.347 29.4734C158.016 29.2214 157.444 28.8715 156.631 28.4236C156.309 28.2276 156.238 28.0083 156.417 27.7657C156.604 27.5138 156.85 27.4671 157.154 27.6258C157.878 27.971 158.445 28.293 158.856 28.5916ZM158.213 32.4687C158.436 32.6087 158.454 32.8233 158.267 33.1126C158.079 33.4018 157.86 33.4625 157.61 33.2945C157.208 32.9959 156.644 32.6553 155.921 32.2727C155.626 32.0955 155.572 31.8808 155.76 31.6289C155.947 31.3769 156.207 31.3396 156.537 31.5169C157.324 31.9088 157.882 32.2261 158.213 32.4687ZM156.899 39.5511C156.729 39.8311 156.506 39.8498 156.229 39.6071C155.952 39.3739 155.889 39.1452 156.041 38.9213C156.667 38.0162 157.359 36.7844 158.119 35.2261C158.289 34.8902 158.495 34.8388 158.736 35.0721C158.986 35.3054 159.04 35.5667 158.897 35.856C158.28 37.1717 157.614 38.4034 156.899 39.5511ZM165.72 38.5854C165.89 38.5854 165.975 38.4967 165.975 38.3194V35.9259C165.975 35.7487 165.89 35.66 165.72 35.66H161.404C161.234 35.66 161.149 35.7487 161.149 35.9259V38.3194C161.149 38.4967 161.234 38.5854 161.404 38.5854H165.72ZM167.825 31.8528C167.825 32.1888 167.678 32.3567 167.383 32.3567H164.098V34.6802H166.377C166.753 34.6802 166.94 34.8762 166.94 35.2681V38.9633C166.94 39.3552 166.753 39.5511 166.377 39.5511H160.774C160.398 39.5511 160.21 39.3552 160.21 38.9633V35.2681C160.21 34.8762 160.398 34.6802 160.774 34.6802H163.133V32.3567H159.661C159.366 32.3567 159.218 32.1888 159.218 31.8528C159.218 31.5076 159.366 31.335 159.661 31.335H163.133V29.0255C162.195 29.1841 161.354 29.3007 160.613 29.3754C160.309 29.4034 160.108 29.2681 160.009 28.9695C159.92 28.6709 160.072 28.5029 160.465 28.4656C163.102 28.167 164.996 27.8031 166.149 27.3738C166.355 27.2992 166.587 27.3971 166.847 27.6678C167.115 27.9384 167.124 28.1157 166.873 28.1996C166.248 28.4236 165.323 28.6475 164.098 28.8715V31.335H167.383C167.678 31.335 167.825 31.5076 167.825 31.8528Z" fill="#B6B6B6"/>
<path d="M148.788 38.5432H153.776C154.07 38.5432 154.218 38.7112 154.218 39.0471C154.218 39.3831 154.07 39.551 153.776 39.551H142.782C142.488 39.551 142.34 39.3831 142.34 39.0471C142.34 38.7112 142.488 38.5432 142.782 38.5432H147.77V34.988H144.23C143.935 34.988 143.788 34.8201 143.788 34.4841C143.788 34.1482 143.935 33.9802 144.23 33.9802H147.77V30.9289H144.619C144.181 31.8247 143.797 32.4779 143.466 32.8885C143.305 33.1031 143.073 33.1078 142.769 32.9025C142.465 32.6972 142.394 32.4966 142.555 32.3006C143.457 31.3022 144.15 29.8745 144.633 28.0176C144.74 27.635 144.959 27.481 145.289 27.5557C145.629 27.6303 145.754 27.8123 145.665 28.1015L145.048 29.9071H147.77V27.6816C147.77 27.3737 147.939 27.2197 148.279 27.2197C148.619 27.2197 148.788 27.3737 148.788 27.6816V29.9071H153.145C153.44 29.9071 153.588 30.0798 153.588 30.425C153.588 30.7609 153.44 30.9289 153.145 30.9289H148.788V33.9802H152.649C152.944 33.9802 153.092 34.1482 153.092 34.4841C153.092 34.8201 152.944 34.988 152.649 34.988H148.788V38.5432Z" fill="#B6B6B6"/>
<path d="M135.154 30.6627H137.38L138.037 29.2211H135.061C135.329 29.6783 135.454 29.9442 135.436 30.0189C135.552 30.3548 135.458 30.5694 135.154 30.6627ZM137.514 35.8696C137.684 35.8696 137.769 35.7809 137.769 35.6037V35.0718C137.769 34.8945 137.684 34.8058 137.514 34.8058H135.919C135.749 34.8058 135.664 34.8945 135.664 35.0718V35.6037C135.664 35.7809 135.749 35.8696 135.919 35.8696H137.514ZM134.404 29.9069C134.261 29.5336 134.341 29.305 134.645 29.2211H132.822C132.527 29.2211 132.379 29.0811 132.379 28.8011C132.379 28.5212 132.527 28.3812 132.822 28.3812H136.053L135.717 27.8214C135.566 27.5694 135.619 27.3921 135.878 27.2895C136.146 27.1775 136.361 27.2475 136.522 27.4994L137.071 28.3812H140.369C140.664 28.3812 140.812 28.5212 140.812 28.8011C140.812 29.0811 140.664 29.2211 140.369 29.2211H138.68C138.904 29.2864 138.962 29.4217 138.854 29.627L138.305 30.6627H139.78C140.155 30.6627 140.343 30.8587 140.343 31.2506L140.249 37.3953C140.195 37.5259 140.061 37.6425 139.847 37.7452C139.641 37.8385 139.306 37.8851 138.841 37.8851C138.421 37.8851 138.162 37.7358 138.064 37.4372C137.965 37.1293 138.055 36.9847 138.332 37.0033C138.457 37.0033 138.752 37.0033 139.216 37.0033C139.351 36.994 139.418 36.9194 139.418 36.7794V31.7545C139.418 31.5772 139.333 31.4886 139.163 31.4886H137.085V32.4403H138.64C138.935 32.4403 139.082 32.5617 139.082 32.8043C139.082 33.0375 138.935 33.1542 138.64 33.1542H137.085V34.148H137.943C138.318 34.148 138.506 34.3439 138.506 34.7358V35.9396C138.506 36.3315 138.318 36.5274 137.943 36.5274H135.49C135.114 36.5274 134.926 36.3315 134.926 35.9396V34.7358C134.926 34.3439 135.114 34.148 135.49 34.148H136.321V33.1542H134.752C134.457 33.1542 134.31 33.0375 134.31 32.8043C134.31 32.5617 134.457 32.4403 134.752 32.4403H136.321V31.4886H134.229C134.06 31.4886 133.975 31.5772 133.975 31.7545V37.4792C133.975 37.7872 133.823 37.9411 133.519 37.9411C133.215 37.9411 133.063 37.7872 133.063 37.4792V31.2506C133.063 30.8587 133.251 30.6627 133.626 30.6627H134.712L134.404 29.9069ZM131.481 29.0111C131.669 29.2444 131.633 29.4543 131.374 29.641C131.124 29.8276 130.909 29.7996 130.73 29.557L129.591 28.0453C129.412 27.812 129.443 27.6207 129.685 27.4714C129.935 27.3128 130.154 27.3501 130.342 27.5834L131.481 29.0111ZM130.234 33.7141C130.145 33.826 130.185 33.8867 130.355 33.896L131.709 34.008C132.093 34.036 132.245 34.2646 132.165 34.6939C132.067 35.4497 131.816 36.2895 131.414 37.2133C131.825 37.8851 132.415 38.3284 133.184 38.543C133.961 38.7576 135.105 38.8649 136.616 38.8649C138.126 38.8649 139.476 38.8183 140.664 38.725C140.959 38.697 141.049 38.8463 140.932 39.1729C140.825 39.5088 140.629 39.6814 140.343 39.6908C139.297 39.7561 138.014 39.7887 136.495 39.7887C134.985 39.7887 133.818 39.6674 132.996 39.4248C132.174 39.1822 131.512 38.7063 131.012 37.9971C130.52 38.8556 130.042 39.4435 129.577 39.7607C129.354 39.938 129.131 39.9054 128.907 39.6628C128.693 39.4295 128.697 39.2289 128.921 39.0609C130.047 38.3237 130.802 36.9987 131.186 35.0858C131.24 34.8525 131.182 34.7358 131.012 34.7358H129.805C129.385 34.7358 129.224 34.7498 129.323 34.7778C129.117 34.8805 128.952 34.7732 128.827 34.4559C128.711 34.1386 128.786 33.9194 129.055 33.798L129.296 33.5741C129.573 33.2942 130.056 32.6456 130.744 31.6285C130.896 31.4046 130.887 31.2926 130.717 31.2926H129.269C128.974 31.2926 128.827 31.1526 128.827 30.8727C128.827 30.5834 128.974 30.4388 129.269 30.4388L131.334 30.3688C131.629 30.3688 131.883 30.4248 132.098 30.5368C132.321 30.6394 132.321 30.8494 132.098 31.1666C131.365 32.2304 130.744 33.0795 130.234 33.7141Z" fill="#B6B6B6"/>
<path d="M121.225 29.9352C121.395 30.1125 121.382 30.3365 121.185 30.6071C120.998 30.8777 120.819 30.915 120.649 30.719C120.238 30.1685 119.487 29.478 118.397 28.6475C117.628 29.7019 116.855 30.4998 116.077 31.041C115.845 31.2089 115.644 31.139 115.474 30.831C115.313 30.5138 115.354 30.2758 115.595 30.1172C115.961 29.8932 116.417 29.4966 116.962 28.9274C117.516 28.3582 117.883 27.8917 118.062 27.5277C118.214 27.2758 118.428 27.2058 118.705 27.3178C118.991 27.4204 119.058 27.6024 118.906 27.8637L118.879 27.9057C120.014 28.7361 120.796 29.4127 121.225 29.9352ZM119.684 38.6413C119.854 38.6413 119.938 38.5527 119.938 38.3754V36.4158C119.938 36.2385 119.854 36.1499 119.684 36.1499H117.311C117.141 36.1499 117.056 36.2385 117.056 36.4158V38.3754C117.056 38.5527 117.141 38.6413 117.311 38.6413H119.684ZM118.973 31.5729V32.9446H120.729C121.024 32.9446 121.172 33.0939 121.172 33.3925C121.172 33.6817 121.024 33.8264 120.729 33.8264H118.973V35.2681H120.327C120.703 35.2681 120.89 35.464 120.89 35.8559V38.9352C120.89 39.3272 120.703 39.5231 120.327 39.5231H116.694C116.319 39.5231 116.131 39.3272 116.131 38.9352V35.8559C116.131 35.464 116.319 35.2681 116.694 35.2681H118.035V33.8264H116.225C115.93 33.8264 115.783 33.6817 115.783 33.3925C115.783 33.0939 115.93 32.9446 116.225 32.9446H118.035V31.5729H117.056C116.761 31.5729 116.614 31.4282 116.614 31.139C116.614 30.8404 116.761 30.6911 117.056 30.6911H119.858C120.153 30.6911 120.3 30.8404 120.3 31.139C120.3 31.4282 120.153 31.5729 119.858 31.5729H118.973ZM125.247 32.2447L126.789 32.3567C127.281 32.3847 127.397 32.7533 127.138 33.4624C126.896 34.181 126.691 34.6895 126.521 34.9881C126.449 35.1467 126.28 35.1934 126.011 35.1281C125.743 35.0534 125.663 34.8761 125.77 34.5962L126.226 33.4345C126.288 33.2758 126.235 33.1965 126.065 33.1965H124.765L124.657 39.4951C124.595 39.6444 124.474 39.7564 124.295 39.831C124.045 39.9524 123.665 40.0083 123.156 39.999C122.736 40.0083 122.477 39.8497 122.378 39.5231C122.289 39.2059 122.338 39.0472 122.526 39.0472C122.544 39.0566 122.897 39.0612 123.585 39.0612C123.674 39.0519 123.732 39.0332 123.759 39.0052C123.795 38.9772 123.813 38.9212 123.813 38.8373V33.1965H121.815C121.52 33.1965 121.373 33.0379 121.373 32.7206C121.373 32.4033 121.52 32.2447 121.815 32.2447H124.751C124.036 31.4422 123.281 30.803 122.486 30.3271C122.217 30.1498 122.195 29.9679 122.419 29.7813C122.642 29.5853 122.83 29.5386 122.982 29.6413C123.053 29.6693 123.429 29.9212 124.108 30.3971C124.59 29.9772 125.015 29.5153 125.381 29.0114C125.506 28.8528 125.484 28.7735 125.314 28.7735H122.244C121.949 28.7735 121.802 28.6195 121.802 28.3116C121.802 27.9943 121.949 27.8357 122.244 27.8357L126.011 27.7797C126.306 27.7797 126.557 27.859 126.762 28.0176C126.968 28.1669 126.981 28.3769 126.802 28.6475C126.311 29.4407 125.627 30.2012 124.751 30.929C125.18 31.3116 125.386 31.5122 125.368 31.5309C125.573 31.7642 125.533 32.0021 125.247 32.2447Z" fill="#B6B6B6"/>
<path d="M109.348 29.8791H107.377C107.109 30.3736 106.872 30.7375 106.666 30.9708C106.479 31.2134 106.246 31.2508 105.969 31.0828C105.701 30.9148 105.661 30.7282 105.849 30.5229C106.492 29.8604 106.97 29.0019 107.283 27.9475C107.399 27.5836 107.609 27.4389 107.913 27.5136C108.217 27.5882 108.315 27.7655 108.208 28.0455L107.846 28.9693H109.348V27.6955C109.348 27.3876 109.508 27.2336 109.83 27.2336C110.161 27.2336 110.326 27.3876 110.326 27.6955V28.9693H112.9C113.195 28.9693 113.343 29.1232 113.343 29.4312C113.343 29.7298 113.195 29.8791 112.9 29.8791H110.326V31.6567H113.436C113.731 31.6567 113.879 31.8106 113.879 32.1186C113.879 32.4172 113.731 32.5665 113.436 32.5665H106.063C105.768 32.5665 105.621 32.4172 105.621 32.1186C105.621 31.8106 105.768 31.6567 106.063 31.6567H109.348V29.8791ZM107.886 34.526C107.717 34.526 107.632 34.6147 107.632 34.792V36.5136C107.632 36.6909 107.717 36.7795 107.886 36.7795H111.747C111.917 36.7795 112.002 36.6909 112.002 36.5136V34.792C112.002 34.6147 111.917 34.526 111.747 34.526H107.886ZM112.981 37.0455C112.981 37.4374 112.793 37.6334 112.418 37.6334H107.243C106.867 37.6334 106.68 37.4374 106.68 37.0455V34.2461C106.68 33.8542 106.867 33.6582 107.243 33.6582H112.418C112.793 33.6582 112.981 33.8542 112.981 34.2461V37.0455ZM104.669 29.0252C104.857 29.2585 104.821 29.4685 104.562 29.6551C104.311 29.8417 104.097 29.8137 103.918 29.5711L102.765 28.0595C102.586 27.8262 102.618 27.6349 102.859 27.4856C103.109 27.327 103.328 27.3643 103.516 27.5976L104.669 29.0252ZM104.481 33.8542C104.776 33.8542 105.004 33.8868 105.165 33.9522C105.335 34.0175 105.388 34.2228 105.326 34.568C105.192 35.4452 104.937 36.313 104.562 37.1715C104.973 37.8526 105.567 38.3052 106.345 38.5292C107.131 38.7531 108.28 38.8651 109.79 38.8651C111.3 38.8651 112.65 38.8184 113.839 38.7251C114.134 38.6971 114.227 38.8464 114.12 39.173C114.013 39.5089 113.821 39.6816 113.544 39.6909C112.489 39.7562 111.198 39.7889 109.669 39.7889C108.15 39.7889 106.979 39.6629 106.157 39.411C105.335 39.1684 104.678 38.6831 104.186 37.9553C103.704 38.8231 103.225 39.4203 102.752 39.7469C102.528 39.9335 102.305 39.9055 102.081 39.6629C101.867 39.4296 101.871 39.229 102.095 39.061C103.203 38.3239 103.94 36.9988 104.307 35.0859C104.361 34.8526 104.302 34.736 104.133 34.736H102.98L102.524 34.778C102.309 34.8806 102.14 34.778 102.014 34.4701C101.889 34.1528 101.961 33.9288 102.229 33.7982L102.457 33.5743C102.761 33.2477 103.23 32.5991 103.864 31.6287C104.007 31.4047 103.994 31.2928 103.824 31.2928H102.457C102.162 31.2928 102.014 31.1528 102.014 30.8728C102.014 30.5836 102.162 30.4389 102.457 30.4389H104.682L104.722 30.4249C105.017 30.3596 105.219 30.383 105.326 30.4949C105.442 30.6069 105.388 30.8309 105.165 31.1668C104.414 32.3145 103.815 33.1683 103.368 33.7282C103.288 33.8309 103.333 33.8822 103.503 33.8822L104.481 33.8542Z" fill="#B6B6B6"/>
<path d="M88.6485 35.0999C88.5502 34.7453 88.6396 34.5307 88.9167 34.4561L90.6192 33.9942V31.0128H89.0641C88.7692 31.0128 88.6217 30.8495 88.6217 30.5229C88.6217 30.187 88.7692 30.019 89.0641 30.019H90.6192V27.6955C90.6192 27.3876 90.7801 27.2336 91.1019 27.2336C91.4326 27.2336 91.5979 27.3876 91.5979 27.6955V30.019H93.0055C93.3005 30.019 93.4479 30.187 93.4479 30.5229C93.4479 30.8495 93.3005 31.0128 93.0055 31.0128H91.5979V33.6862L93.0458 33.2523C93.3228 33.1777 93.4792 33.3036 93.515 33.6302C93.5597 33.9475 93.4435 34.1481 93.1664 34.2321L91.5979 34.736L91.4906 39.285C91.4191 39.4436 91.2761 39.5743 91.0617 39.6769C90.8472 39.7889 90.4718 39.8402 89.9355 39.8309C89.5065 39.8402 89.2384 39.6816 89.1312 39.355C89.0239 39.0284 89.1088 38.8698 89.3859 38.8791C89.5378 38.8791 89.8596 38.8791 90.3511 38.8791C90.5299 38.8791 90.6192 38.7858 90.6192 38.5991V35.0579L89.2116 35.4918C88.9345 35.5758 88.7469 35.4452 88.6485 35.0999ZM100.312 28.3954C100.607 28.3954 100.754 28.568 100.754 28.9133C100.754 29.2492 100.607 29.4172 100.312 29.4172H98.3814V38.4732C98.3814 38.8371 98.3322 39.1124 98.2339 39.299C98.1356 39.4856 97.9658 39.6209 97.7245 39.7049C97.3759 39.8449 96.7369 39.9102 95.8074 39.9009C95.3695 39.9102 95.079 39.7282 94.936 39.355C94.802 38.9817 94.9539 38.8044 95.3918 38.8231C96.1247 38.8511 96.6297 38.8558 96.9067 38.8371C97.1927 38.8184 97.3357 38.6925 97.3357 38.4592V29.4172H93.9574C93.6624 29.4172 93.515 29.2492 93.515 28.9133C93.515 28.568 93.6624 28.3954 93.9574 28.3954H100.312Z" fill="#B6B6B6"/>
<g clip-path="url(#clip0_108_241)">
<path d="M154.782 11.8895C155.718 11.8895 156.476 11.0973 156.476 10.1202C156.476 9.14298 155.718 8.35083 154.782 8.35083C153.846 8.35083 153.087 9.14298 153.087 10.1202C153.087 11.0973 153.846 11.8895 154.782 11.8895Z" fill="#E69270"/>
<path d="M157.832 9.05867C158.768 9.05867 159.527 8.26651 159.527 7.28934C159.527 6.31217 158.768 5.52002 157.832 5.52002C156.896 5.52002 156.137 6.31217 156.137 7.28934C156.137 8.26651 156.896 9.05867 157.832 9.05867Z" fill="#E69270"/>
<path d="M161.899 9.05867C162.835 9.05867 163.594 8.26651 163.594 7.28934C163.594 6.31217 162.835 5.52002 161.899 5.52002C160.963 5.52002 160.205 6.31217 160.205 7.28934C160.205 8.26651 160.963 9.05867 161.899 9.05867Z" fill="#E69270"/>
<path d="M164.95 11.8895C165.886 11.8895 166.644 11.0973 166.644 10.1202C166.644 9.14298 165.886 8.35083 164.95 8.35083C164.014 8.35083 163.255 9.14298 163.255 10.1202C163.255 11.0973 164.014 11.8895 164.95 11.8895Z" fill="#E69270"/>
<path d="M163.485 13.9136C162.896 13.1917 162.401 12.576 161.804 11.8541C161.493 11.4719 161.093 11.0897 160.618 10.9199C160.544 10.8916 160.469 10.8703 160.394 10.8562C160.225 10.8279 160.042 10.8279 159.866 10.8279C159.689 10.8279 159.506 10.8279 159.33 10.8633C159.256 10.8774 159.181 10.8987 159.106 10.927C158.632 11.0968 158.239 11.479 157.92 11.8612C157.331 12.583 156.836 13.1988 156.239 13.9207C155.351 14.8478 154.26 15.874 154.463 17.3107C154.66 18.0326 155.155 18.7474 156.043 18.9526C156.537 19.0588 158.117 18.6412 159.798 18.6412H159.92C161.601 18.6412 163.18 19.0517 163.675 18.9526C164.563 18.7474 165.058 18.0255 165.255 17.3107C165.465 15.8669 164.373 14.8407 163.485 13.9136Z" fill="#E69270"/>
</g>
<path d="M31.956 34.0247H85.6017" stroke="#B6B6B6"/>
<defs>
<clipPath id="clip0_108_241">
<rect width="16.2686" height="16.9855" fill="white" transform="translate(151.731 3.39673)"/>
</clipPath>
</defs>
</svg>
