<?xml version="1.0" encoding="utf-8"?>
<!-- Generator: Adobe Illustrator 26.0.0, SVG Export Plug-In . SVG Version: 6.00 Build 0)  -->
<svg version="1.1" id="圖層_1" xmlns="http://www.w3.org/2000/svg" xmlns:xlink="http://www.w3.org/1999/xlink" x="0px" y="0px"
	 viewBox="0 0 118.01 127.25" style="enable-background:new 0 0 118.01 127.25;" xml:space="preserve">
<style type="text/css">
	.st0{clip-path:url(#SVGID_00000030473488001407957220000011878603921670120088_);}
	.st1{fill:#E69270;}
</style>
<g>
	<defs>
		<rect id="SVGID_1_" x="-3.93" y="-5.23" width="126.88" height="132.47"/>
	</defs>
	<clipPath id="SVGID_00000061469389864967422970000002633789656367926462_">
		<use xlink:href="#SVGID_1_"  style="overflow:visible;"/>
	</clipPath>
	<g style="clip-path:url(#SVGID_00000061469389864967422970000002633789656367926462_);">
		<path class="st1" d="M19.87,61.01c7.3,0,13.22-6.18,13.22-13.8c0-7.62-5.92-13.8-13.22-13.8S6.65,39.59,6.65,47.21
			C6.65,54.83,12.57,61.01,19.87,61.01z"/>
		<path class="st1" d="M43.66,38.93c7.3,0,13.22-6.18,13.22-13.8s-5.92-13.8-13.22-13.8s-13.21,6.18-13.21,13.8
			S36.36,38.93,43.66,38.93z"/>
		<path class="st1" d="M75.38,38.93c7.3,0,13.22-6.18,13.22-13.8s-5.92-13.8-13.22-13.8c-7.3,0-13.21,6.18-13.21,13.8
			S68.08,38.93,75.38,38.93z"/>
		<path class="st1" d="M99.17,61.01c7.29,0,13.21-6.18,13.21-13.8c0-7.62-5.92-13.8-13.21-13.8c-7.3,0-13.22,6.18-13.22,13.8
			C85.95,54.83,91.87,61.01,99.17,61.01z"/>
		<path class="st1" d="M87.75,76.79c-4.59-5.63-8.45-10.43-13.11-16.06c-2.43-2.98-5.55-5.96-9.25-7.29
			c-0.58-0.22-1.16-0.39-1.75-0.5c-1.32-0.22-2.75-0.22-4.12-0.22c-1.38,0-2.81,0-4.18,0.28c-0.58,0.11-1.16,0.28-1.74,0.5
			c-3.7,1.32-6.77,4.31-9.26,7.29c-4.59,5.63-8.45,10.43-13.11,16.06c-6.93,7.23-15.43,15.23-13.85,26.44
			c1.54,5.63,5.4,11.21,12.32,12.81c3.85,0.83,16.18-2.43,29.29-2.43h0.95c13.11,0,25.43,3.2,29.29,2.43
			c6.93-1.6,10.79-7.23,12.32-12.81C103.19,92.03,94.67,84.03,87.75,76.79z"/>
	</g>
</g>
</svg>
