<svg width="48" height="48" viewBox="0 0 48 48" fill="none" xmlns="http://www.w3.org/2000/svg">
<rect width="48" height="48" rx="24" fill="#F7EEE9"/>
<g clip-path="url(#clip0_122_965)">
<path d="M19 32H23C23 33.1 22.1 34 21 34C19.9 34 19 33.1 19 32ZM17 31H25V29H17V31ZM28.5 21.5C28.5 25.32 25.84 27.36 24.73 28H17.27C16.16 27.36 13.5 25.32 13.5 21.5C13.5 17.36 16.86 14 21 14C25.14 14 28.5 17.36 28.5 21.5ZM33.37 19.37L32 20L33.37 20.63L34 22L34.63 20.63L36 20L34.63 19.37L34 18L33.37 19.37ZM31 18L31.94 15.94L34 15L31.94 14.06L31 12L30.06 14.06L28 15L30.06 15.94L31 18Z" fill="#A44119"/>
</g>
<defs>
<clipPath id="clip0_122_965">
<rect width="24" height="24" fill="white" transform="translate(12 12)"/>
</clipPath>
</defs>
</svg>
