<svg width="48" height="48" viewBox="0 0 48 48" fill="none" xmlns="http://www.w3.org/2000/svg">
<rect width="48" height="48" rx="24" fill="#F7EEE9"/>
<path d="M15.7251 23C15.3418 23 15.0545 22.8373 14.8631 22.512C14.6711 22.1873 14.6668 21.8583 14.8501 21.525L18.1501 15.575C18.2501 15.3917 18.3751 15.2583 18.5251 15.175C18.6751 15.0917 18.8418 15.05 19.0251 15.05C19.2085 15.05 19.3751 15.0917 19.5251 15.175C19.6751 15.2583 19.8001 15.3917 19.9001 15.575L23.2001 21.525C23.3835 21.8583 23.3795 22.1873 23.1881 22.512C22.9961 22.8373 22.7085 23 22.3251 23H15.7251ZM19.0251 33C17.9251 33 16.9835 32.6083 16.2001 31.825C15.4168 31.0417 15.0251 30.1 15.0251 29C15.0251 27.8833 15.4168 26.9373 16.2001 26.162C16.9835 25.3873 17.9251 25 19.0251 25C20.1251 25 21.0668 25.3917 21.8501 26.175C22.6335 26.9583 23.0251 27.9 23.0251 29C23.0251 30.1 22.6335 31.0417 21.8501 31.825C21.0668 32.6083 20.1251 33 19.0251 33ZM26.0251 33C25.7418 33 25.5041 32.904 25.3121 32.712C25.1208 32.5207 25.0251 32.2833 25.0251 32V26C25.0251 25.7167 25.1208 25.479 25.3121 25.287C25.5041 25.0957 25.7418 25 26.0251 25H32.0251C32.3085 25 32.5461 25.0957 32.7381 25.287C32.9295 25.479 33.0251 25.7167 33.0251 26V32C33.0251 32.2833 32.9295 32.5207 32.7381 32.712C32.5461 32.904 32.3085 33 32.0251 33H26.0251ZM29.0251 22.625C28.8918 22.625 28.7585 22.604 28.6251 22.562C28.4918 22.5207 28.3751 22.4583 28.2751 22.375C27.3585 21.6083 26.6208 20.975 26.0621 20.475C25.5041 19.975 25.0751 19.5417 24.7751 19.175C24.4751 18.8083 24.2751 18.475 24.1751 18.175C24.0751 17.875 24.0251 17.5417 24.0251 17.175C24.0251 16.425 24.2875 15.7917 24.8121 15.275C25.3375 14.7583 25.9918 14.5 26.7751 14.5C27.2251 14.5 27.6461 14.604 28.0381 14.812C28.4295 15.0207 28.7585 15.3083 29.0251 15.675C29.2918 15.3083 29.6211 15.0207 30.0131 14.812C30.4045 14.604 30.8251 14.5 31.2751 14.5C32.0585 14.5 32.7128 14.7583 33.2381 15.275C33.7628 15.7917 34.0251 16.425 34.0251 17.175C34.0251 17.525 33.9795 17.85 33.8881 18.15C33.7961 18.45 33.6001 18.7833 33.3001 19.15C33.0001 19.5167 32.5711 19.954 32.0131 20.462C31.4545 20.9707 30.7168 21.6083 29.8001 22.375C29.7001 22.4583 29.5795 22.5207 29.4381 22.562C29.2961 22.604 29.1585 22.625 29.0251 22.625Z" fill="#A44119"/>
</svg>
